<svg width="500" height="326" viewBox="0 0 500 326" fill="none" xmlns="http://www.w3.org/2000/svg">
<path d="M490.508 324.892C453.115 317.979 416.316 311.246 379.514 304.53C372.299 303.213 365.101 301.756 357.842 300.746C352.625 300.02 350.031 297.625 349.819 292.2C348.897 268.704 347.917 245.208 346.74 221.724C345.085 188.706 343.195 155.7 341.489 122.684C340.604 105.566 339.897 88.4392 338.888 71.2905C337.892 92.131 336.976 112.976 335.885 133.811C333.554 178.317 331.091 222.816 328.784 267.323C328.353 275.644 328.336 283.99 328.252 292.325C328.201 297.338 325.801 299.756 320.876 300.647C275.875 308.79 230.899 317.067 185.912 325.286C183.767 325.678 181.565 326.175 178.149 323.915C231.261 216.966 284.445 109.876 337.628 2.78598C338.495 2.68283 339.362 2.57967 340.229 2.4765C393.5 109.699 446.771 216.921 500 324.059C496.344 326.449 493.718 325.663 490.508 324.892Z" fill="#D92B66"/>
<path d="M312.359 0.768642C274.967 7.68209 238.168 14.4148 201.365 21.1311C194.151 22.4479 186.952 23.9047 179.693 24.9152C174.477 25.6412 171.883 28.0357 171.67 33.461C170.749 56.9573 169.768 80.4524 168.591 103.937C166.936 136.955 165.047 169.961 163.34 202.977C162.455 220.095 161.748 237.222 160.739 254.37C159.744 233.53 158.828 212.685 157.736 191.85C155.405 147.344 152.942 102.845 150.636 58.338C150.204 50.0167 150.187 41.6713 150.103 33.3358C150.052 28.3234 147.652 25.905 142.727 25.0137C97.7266 16.8705 52.7502 8.59361 7.76326 0.375202C5.61838 -0.0166227 3.41662 -0.513632 0 1.74555C53.1128 108.694 106.296 215.785 159.479 322.875C160.346 322.978 161.213 323.081 162.081 323.184C215.351 215.962 268.622 108.74 321.851 1.6016C318.196 -0.788052 315.569 -0.00189084 312.359 0.768642Z" fill="#D92B66"/>
</svg>
